<svg xmlns="http://www.w3.org/2000/svg" xmlns:xlink="http://www.w3.org/1999/xlink" viewBox="0 0 3704.9 3666.27"><defs><style>.cls-1{fill:none;}.cls-2{fill:url(#linear-gradient);}.cls-15,.cls-3{fill:#fff;}.cls-3{opacity:0.5;}.cls-4{fill:#c3dbdd;}.cls-5{fill:#6dbfd5;}.cls-6{fill:#384c4b;}.cls-7{fill:#ddecef;}.cls-8{fill:#c13838;}.cls-9{fill:#8e5c21;}.cls-10{fill:#509039;}.cls-11{fill:#8d6c3a;}.cls-12{fill:#755522;}.cls-13{fill:#419645;}.cls-14{fill:#55b748;}.cls-16{fill:#d6cc0b;}.cls-17{fill:#c65900;}.cls-18{fill:url(#linear-gradient-2);}.cls-19{fill:#95fcfc;}.cls-20{fill:#b6f0ff;opacity:0.43;}.cls-21{fill:url(#linear-gradient-3);}.cls-22{clip-path:url(#clip-path);}.cls-23{fill:url(#linear-gradient-4);}.cls-24{fill:url(#linear-gradient-5);}.cls-25{fill:url(#linear-gradient-6);}.cls-26{fill:url(#linear-gradient-7);}.cls-27{fill:url(#linear-gradient-8);}.cls-28{fill:url(#linear-gradient-9);}.cls-29{fill:url(#linear-gradient-10);}.cls-30{fill:url(#linear-gradient-11);}.cls-31{fill:url(#linear-gradient-12);}.cls-32{fill:url(#linear-gradient-13);}.cls-33{fill:url(#linear-gradient-14);}.cls-34{fill:url(#linear-gradient-15);}.cls-35{fill:url(#linear-gradient-16);}.cls-36{fill:url(#linear-gradient-17);}.cls-37{fill:url(#linear-gradient-18);}.cls-38{fill:url(#linear-gradient-19);}.cls-39{fill:url(#linear-gradient-20);}.cls-40{fill:url(#linear-gradient-21);}.cls-41{fill:url(#linear-gradient-22);}.cls-42{fill:url(#linear-gradient-23);}.cls-43{fill:url(#linear-gradient-24);}.cls-44{fill:url(#linear-gradient-25);}.cls-45{fill:url(#linear-gradient-26);}.cls-46{fill:url(#linear-gradient-27);}.cls-47{fill:url(#linear-gradient-28);}.cls-48{fill:url(#linear-gradient-29);}.cls-49{fill:url(#linear-gradient-30);}.cls-50{fill:url(#linear-gradient-31);}.cls-51{fill:url(#linear-gradient-32);}.cls-52{fill:url(#linear-gradient-33);}.cls-53{fill:url(#linear-gradient-34);}.cls-54{fill:url(#linear-gradient-35);}.cls-55{fill:url(#linear-gradient-36);}.cls-56{fill:url(#linear-gradient-37);}.cls-57{fill:url(#linear-gradient-38);}.cls-58{fill:url(#linear-gradient-39);}.cls-59{fill:url(#linear-gradient-40);}</style><linearGradient id="linear-gradient" x1="-174.54" y1="5534.94" x2="5267.65" y2="-4331.22" gradientUnits="userSpaceOnUse"><stop offset="0" stop-color="#53d8ff"/><stop offset="1" stop-color="#3840f7"/></linearGradient><linearGradient id="linear-gradient-2" x1="2053.71" y1="1068.09" x2="2099.29" y2="2617.81" gradientUnits="userSpaceOnUse"><stop offset="0" stop-color="#2b3582"/><stop offset="1" stop-color="#150e42"/></linearGradient><linearGradient id="linear-gradient-3" x1="2045.52" y1="2535.13" x2="1968.94" y2="1367.26" gradientTransform="translate(4128.61 5643.28) rotate(-180)" xlink:href="#linear-gradient-2"/><clipPath id="clip-path" transform="translate(-3.84 -20.85)"><path class="cls-1" d="M2927.45,2593c0,26.31-12.94,47.83-28.75,47.83H1323.13c-15.82,0-28.76-21.52-28.76-47.83l-12.9-1426.43c1.52-85.84,46.76-116.69,74.18-114.87L2895.12,983c14.73-.66,29,8.79,39.42,26.11s16.17,41,15.8,65.53Z"/></clipPath><linearGradient id="linear-gradient-4" x1="-481.79" y1="2458.57" x2="-1331.47" y2="3610.2" gradientTransform="matrix(-1, 0, 0, 1, 1556.97, 0)" xlink:href="#linear-gradient-2"/><linearGradient id="linear-gradient-5" x1="-611.6" y1="2362.79" x2="-1461.28" y2="3514.42" gradientTransform="matrix(-1, 0, 0, 1, 1556.97, 0)" xlink:href="#linear-gradient-2"/><linearGradient id="linear-gradient-6" x1="-1129.85" y1="2141.88" x2="-511.13" y2="2141.88" gradientTransform="matrix(-1, 0, 0, 1, 1556.97, 0)" xlink:href="#linear-gradient-2"/><linearGradient id="linear-gradient-7" x1="-731.8" y1="2423.96" x2="-1211.21" y2="3168.69" gradientTransform="matrix(-1, 0, 0, 1, 1556.97, 0)" gradientUnits="userSpaceOnUse"><stop offset="0" stop-color="#53eac9"/><stop offset="1" stop-color="#45aed8"/></linearGradient><linearGradient id="linear-gradient-8" x1="10471.75" y1="1483.4" x2="10775.82" y2="2175.22" gradientTransform="translate(-8890.8)" gradientUnits="userSpaceOnUse"><stop offset="0" stop-color="#f9b776"/><stop offset="1" stop-color="#f47960"/></linearGradient><linearGradient id="linear-gradient-9" x1="74.79" y1="1253" x2="201.67" y2="1057.93" gradientTransform="matrix(-1, 0, 0, 1, 1556.97, 0)" xlink:href="#linear-gradient-8"/><linearGradient id="linear-gradient-10" x1="-927.39" y1="1588.16" x2="-700.67" y2="1588.16" gradientTransform="matrix(-1, 0, 0, 1, 1556.97, 0)" xlink:href="#linear-gradient-8"/><linearGradient id="linear-gradient-11" x1="-737.29" y1="2480.16" x2="-1249.85" y2="3276.38" xlink:href="#linear-gradient-7"/><linearGradient id="linear-gradient-12" x1="-824.16" y1="2364.5" x2="-1303.58" y2="3109.23" xlink:href="#linear-gradient-7"/><linearGradient id="linear-gradient-13" x1="-733.51" y1="2007.36" x2="-310.32" y2="1702.8" gradientTransform="matrix(-1, 0, 0, 1, 1553.14, -20.85)" gradientUnits="userSpaceOnUse"><stop offset="0" stop-color="#9cfffb"/><stop offset="1" stop-color="#9bfffa"/></linearGradient><linearGradient id="linear-gradient-14" x1="-925.46" y1="1905.95" x2="-869.53" y2="1865.7" xlink:href="#linear-gradient-7"/><linearGradient id="linear-gradient-15" x1="-758.24" y1="1820.03" x2="-661.64" y2="1820.03" gradientTransform="matrix(-1, 0, 0, 1, 1556.97, 0)" xlink:href="#linear-gradient-13"/><linearGradient id="linear-gradient-16" x1="-620.51" y1="1786.87" x2="-305.2" y2="3100.69" gradientTransform="matrix(-1, 0, 0, 1, 1556.97, 0)" gradientUnits="userSpaceOnUse"><stop offset="0" stop-color="#fdf53f"/><stop offset="1" stop-color="#d93c65"/></linearGradient><linearGradient id="linear-gradient-17" x1="-423.1" y1="1579.77" x2="-490.25" y2="1874.66" gradientTransform="matrix(-1, 0, 0, 1, 1556.97, 0)" xlink:href="#linear-gradient"/><linearGradient id="linear-gradient-18" x1="-458.24" y1="1703.47" x2="-490.36" y2="1896.17" gradientTransform="matrix(-1, 0, 0, 1, 1556.97, 0)" xlink:href="#linear-gradient"/><linearGradient id="linear-gradient-19" x1="-836.58" y1="2134.44" x2="-657.93" y2="2134.44" gradientTransform="matrix(-1, 0, 0, 1, 1556.97, 0)" xlink:href="#linear-gradient-8"/><linearGradient id="linear-gradient-20" x1="-1120.67" y1="2180.93" x2="-835.24" y2="2180.93" xlink:href="#linear-gradient-7"/><linearGradient id="linear-gradient-21" x1="-1151.1" y1="2294.09" x2="-846.01" y2="2294.09" xlink:href="#linear-gradient-7"/><linearGradient id="linear-gradient-22" x1="-921.93" y1="-1664.81" x2="-1236.48" y2="-1248.69" gradientTransform="matrix(-0.81, -0.58, -0.58, 0.81, 561.72, 2074.84)" xlink:href="#linear-gradient-8"/><linearGradient id="linear-gradient-23" x1="-1162.16" y1="-1564.88" x2="-786.43" y2="-1564.88" gradientTransform="matrix(-0.81, -0.58, -0.58, 0.81, 561.72, 2074.84)" xlink:href="#linear-gradient-2"/><linearGradient id="linear-gradient-24" x1="-1382.63" y1="-1335.27" x2="-1130.33" y2="-1594.12" gradientTransform="matrix(-0.81, -0.58, -0.58, 0.81, 561.72, 2074.84)" xlink:href="#linear-gradient-8"/><linearGradient id="linear-gradient-25" x1="-3135.78" y1="2960.4" x2="-3751.78" y2="3630.43" gradientTransform="translate(4436.61)" xlink:href="#linear-gradient-2"/><linearGradient id="linear-gradient-26" x1="-3335.73" y1="3010.16" x2="-3281.01" y2="3010.16" gradientTransform="translate(4436.61)" xlink:href="#linear-gradient-8"/><linearGradient id="linear-gradient-27" x1="1329.85" y1="1765.17" x2="1044.45" y2="2656.17" xlink:href="#linear-gradient-2"/><linearGradient id="linear-gradient-28" x1="-3273.97" y1="2833.35" x2="-3889.97" y2="3503.39" gradientTransform="translate(4436.61)" xlink:href="#linear-gradient-2"/><linearGradient id="linear-gradient-29" x1="-3532.92" y1="3007.36" x2="-3485.68" y2="3007.36" gradientTransform="translate(4436.61)" xlink:href="#linear-gradient-8"/><linearGradient id="linear-gradient-30" x1="1194.56" y1="1721.84" x2="909.16" y2="2612.83" xlink:href="#linear-gradient-2"/><linearGradient id="linear-gradient-31" x1="817.08" y1="2410.51" x2="1187.73" y2="1355.98" xlink:href="#linear-gradient"/><linearGradient id="linear-gradient-32" x1="-3450.62" y1="1587.86" x2="-3301.9" y2="1587.86" gradientTransform="translate(4436.61)" xlink:href="#linear-gradient-8"/><linearGradient id="linear-gradient-33" x1="-7755.11" y1="-1813.01" x2="-7807.37" y2="-1985.4" gradientTransform="translate(8977.81 3007.13) rotate(-3.09)" xlink:href="#linear-gradient-8"/><linearGradient id="linear-gradient-34" x1="654.45" y1="867.13" x2="495.37" y2="1353.44" gradientTransform="matrix(-1, 0, 0, 1, 1565.89, 0)" xlink:href="#linear-gradient-2"/><linearGradient id="linear-gradient-35" x1="-7808.53" y1="-1813.82" x2="-7855.56" y2="-1968.91" gradientTransform="translate(8977.81 3007.13) rotate(-3.09)" xlink:href="#linear-gradient-8"/><linearGradient id="linear-gradient-36" x1="2342.39" y1="1169.54" x2="2474.37" y2="1169.54" gradientTransform="matrix(-0.97, 0.24, 0.24, 0.97, 3221.59, 146.59)" xlink:href="#linear-gradient-8"/><linearGradient id="linear-gradient-37" x1="1037.26" y1="2487.9" x2="1407.91" y2="1433.37" xlink:href="#linear-gradient"/><linearGradient id="linear-gradient-38" x1="3268.19" y1="1776.33" x2="3350.52" y2="1608.23" gradientTransform="translate(-2164.56 -20.85)" xlink:href="#linear-gradient-8"/><linearGradient id="linear-gradient-39" x1="1232.33" y1="2033.72" x2="568.83" y2="1455.83" xlink:href="#linear-gradient"/><linearGradient id="linear-gradient-40" x1="3259.19" y1="1777.32" x2="3331.13" y2="1630.45" gradientTransform="translate(-2160.73)" xlink:href="#linear-gradient-8"/></defs><title>Cover</title><g id="Background"><path class="cls-2" d="M3707.29,1816.93c39.79,1003-744.7,1839.84-1761.4,1869.39C918.89,3716.16,45.82,2912.5,5.3,1891S772.74,32.24,1800.48,21C2817.91,9.8,3667.5,813.93,3707.29,1816.93Z" transform="translate(-3.84 -20.85)"/><path class="cls-3" d="M3484.14,1821.4c35,881-654.57,1615.21-1547.17,1640.15-900.53,25.17-1665.23-680-1700.74-1575.15S908.3,256.61,1809.4,245.72C2702.56,234.94,3449.19,940.43,3484.14,1821.4Z" transform="translate(-3.84 -20.85)"/><rect class="cls-4" x="1173.58" y="1163.05" width="839.54" height="792.92" transform="translate(-199.22 207.77) rotate(-7.73)"/><rect class="cls-4" x="561.43" y="1265.68" width="634.69" height="787.36" transform="translate(-219.15 112.51) rotate(-7.73)"/><rect class="cls-5" x="900.48" y="1345.26" width="180.05" height="180.05" transform="translate(-187.98 125.51) rotate(-7.73)"/><path class="cls-6" d="M498.28,1289.36c-11.49,1.56-19.77,10.38-18.5,19.7l1.68,12.39c1.27,9.32,11.6,15.62,23.08,14.06l695-94.39-6.27-46.15Z" transform="translate(-3.84 -20.85)"/><rect class="cls-5" x="621.63" y="1383.13" width="180.05" height="180.05" transform="translate(-195.62 88.32) rotate(-7.73)"/><rect class="cls-4" x="1962.11" y="1075.47" width="634.69" height="792.01" transform="translate(-181.13 299.3) rotate(-7.73)"/><path class="cls-6" d="M2547.18,1011.09c11.48-1.56,21.81,4.74,23.08,14.06l1.68,12.38c1.27,9.33-7,18.15-18.5,19.71l-695,94.39-6.27-46.15Z" transform="translate(-3.84 -20.85)"/><polygon class="cls-7" points="1110.5 841.23 1140.42 1061.48 1266.79 1991.96 1994.32 1893.16 1867.95 962.67 1838.04 742.42 1110.5 841.23"/><rect class="cls-5" x="1344.85" y="1537.15" width="233.06" height="410.05" transform="translate(-225 191.67) rotate(-7.73)"/><rect class="cls-5" x="1625.43" y="1499.16" width="231.4" height="410.05" transform="translate(-217.34 228.97) rotate(-7.73)"/><rect class="cls-6" x="1025.18" y="800.77" width="910.42" height="57.35" rx="20.98" transform="translate(-101.99 185.92) rotate(-7.73)"/><path class="cls-6" d="M1446.33,576.39a116,116,0,1,1-76.68,44.69,115.17,115.17,0,0,1,76.68-44.69m-3.46-25.47a141.66,141.66,0,1,0,159.44,121.3,141.66,141.66,0,0,0-159.44-121.3Z" transform="translate(-3.84 -20.85)"/><path class="cls-6" d="M1286.2,1473.84H1851.6a8.13,8.13,0,0,1,8.13,8.13v29.79a8.12,8.12,0,0,1-8.12,8.12H1286.2a8.12,8.12,0,0,1-8.12-8.12V1482a8.12,8.12,0,0,1,8.12-8.12Z" transform="translate(-191.01 203.91) rotate(-7.73)"/><rect class="cls-5" x="935.89" y="1606.04" width="180.05" height="180.05" transform="translate(-222.75 132.65) rotate(-7.73)"/><rect class="cls-5" x="657.04" y="1643.91" width="180.05" height="180.05" transform="matrix(0.99, -0.13, 0.13, 0.99, -230.39, 95.46)"/><rect class="cls-5" x="1536.04" y="999.01" width="156.86" height="156.86" transform="translate(-134.15 206.22) rotate(-7.73)"/><rect class="cls-5" x="1328.48" y="1027.2" width="156.86" height="156.86" transform="translate(-139.83 178.55) rotate(-7.73)"/><rect class="cls-5" x="1565.4" y="1215.15" width="156.86" height="156.86" transform="translate(-162.97 212.14) rotate(-7.73)"/><rect class="cls-5" x="1357.83" y="1243.34" width="156.86" height="156.86" transform="translate(-168.65 184.46) rotate(-7.73)"/><circle class="cls-8" cx="1461.85" cy="692.75" r="127.21" transform="translate(-65.52 1215.73) rotate(-45)"/><path class="cls-9" d="M313.26,2237c.12,1.29.26,2.59.44,3.89l.16,1.19c8,59.1,70,99.48,138.64,90.16L2839.79,2008c68.62-9.32,117.74-64.78,109.71-123.88l-.16-1.19c-.18-1.3-.39-2.59-.62-3.87Z" transform="translate(-3.84 -20.85)"/><path class="cls-10" d="M2810.56,1792.79,423.27,2117c-67.11,9.11-115.43,62.35-110,120l2635.46-357.93C2938.57,1822.08,2877.67,1783.67,2810.56,1792.79Z" transform="translate(-3.84 -20.85)"/><polygon class="cls-11" points="548.26 2002.19 558.48 2102.8 579.05 2107.91 564.39 2000 548.26 2002.19"/><polygon class="cls-12" points="580.53 1997.81 564.39 2000 579.05 2107.91 597.52 2097.49 580.53 1997.81"/><path class="cls-13" d="M537.67,1817.25s200.26,165.31,36.44,237.25Z" transform="translate(-3.84 -20.85)"/><path class="cls-14" d="M537.63,1817s-141.38,218,36.48,237.46Z" transform="translate(-3.84 -20.85)"/><polygon class="cls-11" points="2654.48 1716.14 2664.69 1816.75 2685.26 1821.86 2670.61 1713.95 2654.48 1716.14"/><polygon class="cls-12" points="2686.74 1711.76 2670.61 1713.95 2685.26 1821.86 2703.73 1811.44 2686.74 1711.76"/><path class="cls-13" d="M2643.88,1531.2s200.27,165.31,36.45,237.25Z" transform="translate(-3.84 -20.85)"/><path class="cls-14" d="M2643.85,1531s-141.39,218,36.48,237.46Z" transform="translate(-3.84 -20.85)"/><polygon class="cls-11" points="1258.26 1905.76 1268.47 2006.37 1289.05 2011.49 1274.39 1903.57 1258.26 1905.76"/><polygon class="cls-12" points="1290.53 1901.38 1274.39 1903.57 1289.05 2011.49 1307.51 2001.07 1290.53 1901.38"/><path class="cls-13" d="M1247.66,1720.83s200.27,165.3,36.45,237.25Z" transform="translate(-3.84 -20.85)"/><path class="cls-14" d="M1247.63,1720.61s-141.38,218,36.48,237.47Z" transform="translate(-3.84 -20.85)"/><polygon class="cls-11" points="1960.08 1810.45 1970.3 1911.05 1990.87 1916.17 1976.22 1808.26 1960.08 1810.45"/><polygon class="cls-12" points="1992.35 1806.06 1976.22 1808.26 1990.87 1916.17 2009.34 1905.75 1992.35 1806.06"/><path class="cls-13" d="M1949.49,1625.51s200.27,165.3,36.44,237.25Z" transform="translate(-3.84 -20.85)"/><path class="cls-14" d="M1949.46,1625.3s-141.39,218,36.47,237.46Z" transform="translate(-3.84 -20.85)"/><polygon class="cls-11" points="903.26 1953.98 913.48 2054.58 934.05 2059.7 919.39 1951.79 903.26 1953.98"/><polygon class="cls-12" points="935.53 1949.59 919.39 1951.79 934.05 2059.7 952.52 2049.28 935.53 1949.59"/><path class="cls-13" d="M892.67,1769s200.26,165.3,36.44,237.25Z" transform="translate(-3.84 -20.85)"/><path class="cls-14" d="M892.63,1768.83s-141.38,218,36.48,237.46Z" transform="translate(-3.84 -20.85)"/><rect class="cls-5" x="2300.51" y="1155.12" width="180.05" height="180.05" transform="translate(-149.66 312.19) rotate(-7.73)"/><rect class="cls-5" x="2021.67" y="1192.99" width="180.05" height="180.05" transform="translate(-157.29 275.01) rotate(-7.73)"/><rect class="cls-5" x="2335.93" y="1415.89" width="180.05" height="180.05" transform="translate(-184.43 319.33) rotate(-7.73)"/><rect class="cls-5" x="2057.08" y="1453.77" width="180.05" height="180.05" transform="translate(-192.06 282.15) rotate(-7.73)"/><polygon class="cls-11" points="2307.28 1763.29 2317.5 1863.9 2338.07 1869.02 2323.41 1761.1 2307.28 1763.29"/><polygon class="cls-12" points="2339.55 1758.91 2323.41 1761.1 2338.07 1869.02 2356.54 1858.6 2339.55 1758.91"/><path class="cls-13" d="M2296.69,1578.36s200.26,165.3,36.44,237.25Z" transform="translate(-3.84 -20.85)"/><path class="cls-14" d="M2296.65,1578.14s-141.38,218,36.48,237.47Z" transform="translate(-3.84 -20.85)"/><circle class="cls-15" cx="1459.16" cy="671.44" r="93.88"/><path class="cls-16" d="M1549.22,661.1l-24.44-32.51-31.72,97.67-73.79-112.78-33.56,94.9-11.91,1.94a96.51,96.51,0,0,0,4.88,16.61l24.79-4,21.47-60.71,74.67,114.14L1532.53,675l18,24,4-.65a97.41,97.41,0,0,0-5.31-37.2Z" transform="translate(-3.84 -20.85)"/><path d="M1443.74,645.12l-2.53.41a7.88,7.88,0,0,0-1.36.11h0a19.17,19.17,0,0,0-6.36,2.58c-4.77,2.84-10.81,9-14.29,19.92s-4.79,26.6-1.28,49.57a7.53,7.53,0,0,0,8.57,6.3l.07,0a7.53,7.53,0,0,0,6.23-8.56c-.37-2.35-.66-4.59-.92-6.75a23.11,23.11,0,0,1-3-8.56,26.07,26.07,0,0,1,2.49-16.22,50.13,50.13,0,0,1,3-13.52l-1.18,10.37a31.61,31.61,0,0,1,2.62-3.38,5.8,5.8,0,0,1,.76-.69,26.19,26.19,0,0,0-6.48,22,26.89,26.89,0,0,0,10.43,17.26,18.23,18.23,0,0,1-8.24-6.62l23.65,65.56c.65,4,5.21,6.62,10.17,5.81s8.46-4.72,7.8-8.74l-8.05-49.46,1.65-.24c.56-.09,1.1-.19,1.64-.3l8.06,49.47c.65,4,5.21,6.62,10.17,5.81s8.46-4.72,7.81-8.74l1.63-69.67a18.24,18.24,0,0,1-5.71,8.89,26.94,26.94,0,0,0,4.42-19.68,26.26,26.26,0,0,0-13.12-18.77,5.55,5.55,0,0,1,.95.42,31.7,31.7,0,0,1,3.55,2.36l-4.4-9.41.18.2a50.34,50.34,0,0,1,7,11.61,26,26,0,0,1,7.5,14.59,23,23,0,0,1-.18,9.08c.45,2.13.88,4.36,1.28,6.71a7.52,7.52,0,0,0,8.62,6.14h.07a7.52,7.52,0,0,0,6.13-8.69c-5.26-30.49-14.49-46.1-23.89-54.19a30.23,30.23,0,0,0-12.91-6.77,19.07,19.07,0,0,0-6.86-.43,7.41,7.41,0,0,0-1.33.34l-2.51.4a21.23,21.23,0,0,1-21.84,3.56Z" transform="translate(-3.84 -20.85)"/><circle cx="1447.87" cy="604.35" r="19.34"/><path class="cls-17" d="M1499.86,659.81l-25.13-17.12a6.6,6.6,0,0,0-5.15-.76L1440,646.69a6.71,6.71,0,0,0-4.63,2.4l-18.4,24.2a6,6,0,0,0-.89,5.69,5.86,5.86,0,0,0,4.39,3.77l21.31,4a5.65,5.65,0,0,0,6.44-3.86c.06,9.13-.22,19.21.65,27.13,1.74,15.87,10.42,64,10.42,64a7.52,7.52,0,0,0,8.56,6.31c4.06-.66,5.24-5.24,4.57-9.38l-8.69-62.26,3-.48,12,62.86c.67,4.14,2.75,7,6.8,6.38a7.53,7.53,0,0,0,6.12-8.69s-7-48.45-10.43-64c-1.7-7.8-5.16-17.26-8-25.94a5.74,5.74,0,0,0,5.5,2.26,5.41,5.41,0,0,0,1.83-.64l19-10.52a5.88,5.88,0,0,0,3-5A6,6,0,0,0,1499.86,659.81ZM1448.2,679a5.82,5.82,0,0,0-4.4-3.78L1431.87,673l10.83-14.25C1447,660.09,1448,668.55,1448.2,679Zm26.84-8.87a5.86,5.86,0,0,0-3,5c-3.08-10-4.81-18.29-1.21-21l14.8,10.08Z" transform="translate(-3.84 -20.85)"/><circle class="cls-17" cx="1448.11" cy="605.84" r="15.69"/></g><g id="Illustration"><path class="cls-18" d="M883.88,2727.71a42.54,42.54,0,0,0,42.43,42.4H3220.87a42.54,42.54,0,0,0,42.43-42.4l19.09-1318.61c0-23.32-27.47-68.83-77.81-65.41l-2242.49-58A106.93,106.93,0,0,0,852.37,1395Z" transform="translate(-3.84 -20.85)"/><path class="cls-19" d="M925.77,2687.05a40.27,40.27,0,0,0,40.15,40.14H3165.53a40.27,40.27,0,0,0,40.15-40.14l18-1197.06c-2.12-72-65.27-97.92-103.56-96.39L970.91,1335.94a75.14,75.14,0,0,0-77.1,76.9Z" transform="translate(-3.84 -20.85)"/><path class="cls-20" d="M1086.73,2606c0,18.28,15.15,33.24,33.66,33.24H2964.54c18.52,0,33.66-15,33.66-33.24l15.11-991c-1.78-59.64-54.73-81.08-86.83-79.81l-1801.9-47.74a63.4,63.4,0,0,0-46.14,18.14,61.7,61.7,0,0,0-18.5,45.53Z" transform="translate(-3.84 -20.85)"/><path class="cls-15" d="M3181.91,2118.36h-.09a5.89,5.89,0,0,1-5.8-6l1.43-97.08a5.87,5.87,0,0,1,5.88-5.79h.08a5.87,5.87,0,0,1,5.8,6l-1.42,97.08A5.89,5.89,0,0,1,3181.91,2118.36Z" transform="translate(-3.84 -20.85)"/><path class="cls-15" d="M3185.4,1880.47h-.09a5.88,5.88,0,0,1-5.79-6l5.46-371.82c-.11-22.08-6.81-39.72-19.93-52.29-24.49-23.47-63.38-22.27-65-22.19l-686.94-18.42a5.88,5.88,0,0,1-5.72-6,5.64,5.64,0,0,1,6-5.72l686.53,18.42c4.27-.25,45.67-1,73.25,25.45,15.51,14.87,23.43,35.34,23.55,60.85l-5.46,371.93A5.89,5.89,0,0,1,3185.4,1880.47Z" transform="translate(-3.84 -20.85)"/><rect class="cls-21" x="769.47" y="2763.71" width="2589.66" height="115.86" rx="5.65" transform="translate(4124.77 5622.43) rotate(180)"/><g class="cls-22"><path class="cls-23" d="M2278.17,3328.91h167.2c26.43-150.26,48.28-317.53,54.6-482,19.08-497.27,0-16.93,0-16.93l-11.2-307.38-196.89,0C2294.29,2534.94,2302.14,2941.59,2278.17,3328.91Z" transform="translate(-3.84 -20.85)"/><path class="cls-24" d="M2436.21,2763.61a60.59,60.59,0,0,1,23.35,33.41c33.5,122.57,50,331.38,58.37,531.89h169c18.13-249.94,22.49-542.31-16.69-778.79L2284,2500.62l10.84,162.48Z" transform="translate(-3.84 -20.85)"/><path class="cls-25" d="M2177.22,1673.18c234.3-3.87,466.93,76,466.93,76,69.83,407.51,32.94,845.95,32.94,845.95-181.39,47.57-386-29.08-386-29.08-30.15-170.33-170.8-649.68-170.8-649.68C2005.81,1902.17,2105,1674.38,2177.22,1673.18Z" transform="translate(-3.84 -20.85)"/><path class="cls-26" d="M1480,1311c23-27.79,52.14-14.64,52.14-14.64,34.48,145.64,215.26,263.72,401,321.44-12.13,51.65-40.05,139-99.29,207.69C1525.62,1652.17,1480,1311,1480,1311Z" transform="translate(-3.84 -20.85)"/><path class="cls-27" d="M1485.59,1318.06c-2.41,7.66,25.48,19.32,41.9-12,.58-15,9.7-79.3.74-91.53-47.76-65.11-140.36-146.73-140.36-146.73-15.65,15.44-2.76,30.61-2.76,30.61l44.92,46.79c-9.39,17-20.85,31.31-26.22,51.85a63,63,0,0,0,6.27,46.33c7.89,14.2,18.64,32.67,28.81,47.12C1458.14,1317.86,1485.59,1318.06,1485.59,1318.06Z" transform="translate(-3.84 -20.85)"/><path class="cls-28" d="M1449.68,1175.57l40.93,34.7,12.86,34.55-36.5,40.49s-12.27-68.55-21.39-83.39S1441.19,1179.91,1449.68,1175.57Z" transform="translate(-3.84 -20.85)"/><path class="cls-15" d="M2575,1944.48l89.86-226.87s218.85,148.7,254.84,337.23c-41.35,3-116.6,13.8-190.25,51C2713.28,2016.8,2575,1944.48,2575,1944.48Z" transform="translate(-3.84 -20.85)"/><path class="cls-29" d="M2409.39,1465.89l74.54,215.59a7.75,7.75,0,0,1-3.54,9.35c-20.32,11.24-93.53,43.71-181.76-12.23a36.54,36.54,0,0,1-16.84-26.12l-24.14-186.59Z" transform="translate(-3.84 -20.85)"/><path class="cls-15" d="M2550.87,1693.34l-89-75.55-133.07,324.9,97,1291,303,9.06a7.76,7.76,0,0,0,8-8l-42.3-1242s-1.16-268.39-29.69-275.11S2550.87,1693.34,2550.87,1693.34Z" transform="translate(-3.84 -20.85)"/><path class="cls-30" d="M2328.84,1926l-51.54-308.22-44.11,38.78-93-.9-19.91,260.71L2253,3250.48a7.75,7.75,0,0,0,8.82,6.91l164.08-23.67Z" transform="translate(-3.84 -20.85)"/><path class="cls-31" d="M2152.41,1656s-149.46-10.3-235.74-43.51C1815.35,1792.59,1789,1797.87,1789,1797.87s122.73,108.88,331.28,118.51S2152.41,1656,2152.41,1656Z" transform="translate(-3.84 -20.85)"/><polygon class="cls-32" points="2270.47 1919.2 2270.47 1950.8 2149.93 1943.78 2149.93 1908.67 2270.47 1919.2"/><path class="cls-33" d="M2336,2018.93a4.71,4.71,0,0,0,2.21-.56l102.24-54.9a4.7,4.7,0,0,0,2.4-3.42l13.83-93.24,36.27-6.44a4.64,4.64,0,0,0,3.63-3.21L2536.05,1729a4.65,4.65,0,1,0-8.89-2.74l-38.62,125.44-36.76,6.53a4.65,4.65,0,0,0-3.79,3.9l-14,94.24-100.19,53.81a4.65,4.65,0,0,0,2.21,8.75Z" transform="translate(-3.84 -20.85)"/><path class="cls-34" d="M2311.72,1987a3.4,3.4,0,0,0,1.73-.46,3.48,3.48,0,0,0,1.31-4.75l-53.47-93.73,8.79-52.76a3.46,3.46,0,0,0-1.79-3.65L2225.75,1809l10.92-152.18a3.5,3.5,0,0,0-3.24-3.74,3.27,3.27,0,0,0-3.73,3.24l-11.08,154.45a3.5,3.5,0,0,0,1.84,3.33l42.33,22.53-8.58,51.5a3.48,3.48,0,0,0,.4,2.3l54.07,94.8A3.49,3.49,0,0,0,2311.72,1987Z" transform="translate(-3.84 -20.85)"/><path class="cls-15" d="M2383.49,2151.31s245.71,138.86,328.61,20.29c17.22-24.62,21.33-49.09,17.09-72.42,73.65-37.19,148.9-47.94,190.25-51,10.85,56.84,5.11,117.28-28.29,178.38-145.22,265.65-540.17-14.68-540.17-14.68Z" transform="translate(-3.84 -20.85)"/><path class="cls-35" d="M2413,2327l-134.09-468.3a13.66,13.66,0,0,0-11.55-9.83c-24.3-2.83-94.7-10.79-176-17.67-97.91-8.28-211.61-15-279.56-9.28a13.7,13.7,0,0,0-11.2,19.72c38.64,78.17,197.57,396.14,277.16,500.3a13.73,13.73,0,0,0,11.05,5.43l311.13-2.9A13.69,13.69,0,0,0,2413,2327Z" transform="translate(-3.84 -20.85)"/><path class="cls-36" d="M2077.48,1790.58l-97.22-16.2a7,7,0,0,0-7.78,9.07l9.63,29.17a7,7,0,0,0,5.7,4.73l93.56,12.49a7,7,0,0,0,7.71-8.5l-5.95-25.47A7,7,0,0,0,2077.48,1790.58Z" transform="translate(-3.84 -20.85)"/><path class="cls-37" d="M2150.28,1872.89l-8-41.72a9.66,9.66,0,0,0-8.5-7.78l-196.37-19.92a9.64,9.64,0,0,0-10.35,11.84l12.49,52a9.65,9.65,0,0,0,8.89,7.38l191.89,9.66A9.65,9.65,0,0,0,2150.28,1872.89Z" transform="translate(-3.84 -20.85)"/><path class="cls-38" d="M2380.62,2213.84s18.68-76.81,11.14-104.06-22.13-62.29-70.79-54.51-106.07,28.29-106.07,28.29,2.9,35.5,39.88,24l-22.93,17.75s3.28,28.42,34.52,13.24L2245,2162.12s13.41,23.34,36.4,8.37S2315.44,2223.09,2380.62,2213.84Z" transform="translate(-3.84 -20.85)"/><path class="cls-39" d="M2614.83,2221.7c23.07,0,44.25-3.41,60.4-12.28a4.65,4.65,0,1,0-4.48-8.16c-64.83,35.6-225.85-25.69-227.45-26.31-.49-.17-31.34-10.9-42.3-32.26a4.65,4.65,0,1,0-8.27,4.24c12.67,24.75,46,36.29,47.4,36.77C2445.17,2185.65,2539.86,2221.7,2614.83,2221.7Z" transform="translate(-3.84 -20.85)"/><path class="cls-40" d="M2703.41,2345.46a4.66,4.66,0,0,0,.17-9.31c-185.9-6.4-291.93-91.52-293-92.38a4.65,4.65,0,1,0-5.9,7.2c1.07.88,109.35,88,298.56,94.49Z" transform="translate(-3.84 -20.85)"/><path class="cls-41" d="M2233.68,1224.82c-2.42,3.37-78,266.93-78,266.93l151.41,40,108.78-239.16S2274.25,1168.48,2233.68,1224.82Z" transform="translate(-3.84 -20.85)"/><path class="cls-42" d="M2355.71,1310.27a22.55,22.55,0,0,1,2.1,19.72l-46.72,128.5a21.73,21.73,0,0,1-2.88,5.45c-6.73,9.24-30.54,37-58.16,10.87-23.54-22.23-45.48-42.33-66-48.4a22.48,22.48,0,0,0-27.88,15.59c-7,24.75-20.13,75-25.51,121.26a22.37,22.37,0,0,0,18,24.47c30.23,5.92,89.62,15.72,140.11,13a22.49,22.49,0,0,0,19.15-12.92c15.53-33.08,59.44-125.63,75.86-149.85,15.25-22.5,51.52-22.17,68.11-20.7a22.63,22.63,0,0,0,17.2-5.73c14.08-12.7,37.28-42,4-77.6-8.29-8.84-7.66-22.88,1-31.35,15.53-15.17,30.59-40.9,5.28-72.94-25.64-32.43-59.55-29.21-81.68-22-9.79,3.18-21-.11-26.65-8.7-2.52-3.83-6.59-6.71-13.14-6.77-12.35-.11-22.25-9.46-22.23-21.81,0-21.17-8.11-47.09-44.15-58.68-66.11-21.25-108.05,42.41-112.6,90.17s68.44,66.72,111.49,63.9C2322,1263.59,2345.48,1294,2355.71,1310.27Z" transform="translate(-3.84 -20.85)"/><path class="cls-43" d="M2366.08,1485.22s11.48-82.87,46-86.61,67.89,24.94,33.14,71.19C2402,1527.33,2366.08,1485.22,2366.08,1485.22Z" transform="translate(-3.84 -20.85)"/></g><path class="cls-44" d="M1106.11,3010.31s-6.38,36.12-9.51,71.87a24.64,24.64,0,0,0,23.56,26.69c47.61,2,149.45,5.83,186,4.2a8,8,0,0,0,7-11,17.92,17.92,0,0,0-9.17-9.66l-168.22-77.31Z" transform="translate(-3.84 -20.85)"/><path class="cls-45" d="M1100.88,2989.09l5.13,43.2s29.46,13.72,49.59-1.73l-12.2-48.14Z" transform="translate(-3.84 -20.85)"/><path class="cls-46" d="M1104.73,2177c-2.21,11.28-11.88,563,47.09,810.17a8.39,8.39,0,0,1-4.92,9.76,146,146,0,0,1-48,9.76,14.45,14.45,0,0,1-14.33-10.37c-16.86-57.36-97.63-344.75-108.17-619.28-11.77-306.76,0-10.44,0-10.44l6.91-189.63Z" transform="translate(-3.84 -20.85)"/><path class="cls-47" d="M912.61,3029.15s-10.16,18.24-20,66.68a15,15,0,0,0,13.22,18c15.72,1.55,39.92,3.53,59.31,3.4A15,15,0,0,0,980,3100.52c-2.14-17.69-8.83-46.7-29.5-69.31Z" transform="translate(-3.84 -20.85)"/><path class="cls-48" d="M903.69,2973.59l12,65.33s11.84,8.81,35.27,2.42l-5.72-70.29Z" transform="translate(-3.84 -20.85)"/><path class="cls-49" d="M871.33,2193.88c-48.23,291.06,10.46,719.39,30.26,803.22a13.07,13.07,0,0,0,10.55,9.93c8.84,1.46,23.39,2.66,37.73-1.51a12,12,0,0,0,8.61-11c2.66-67.78-2.12-483.86,42.82-648.3a37.35,37.35,0,0,1,14.4-20.61l87.23-62,6.68-100.23Z" transform="translate(-3.84 -20.85)"/><path class="cls-50" d="M1178.65,1642.36c-144.53-2.38-304,38-304,38-128.37,126.3-7.53,541.33-7.53,541.33,111.89,29.35,238.11-17.94,238.11-17.94,18.6-105.07,105.37-400.78,105.37-400.78C1281.21,1794.17,1223.23,1643.1,1178.65,1642.36Z" transform="translate(-3.84 -20.85)"/><path class="cls-51" d="M1048.46,1499.83c-28.37,33.1-45.47,95.17-62.2,158.19a4.79,4.79,0,0,0,2.18,5.77c12.54,6.93,57.7,27,112.13-7.54a22.58,22.58,0,0,0,10.39-16.12l23.75-122.82Z" transform="translate(-3.84 -20.85)"/><path class="cls-52" d="M1184.16,1512.5s-20,105.78-49,131.72-76.2-15.32-99.38-73.82l34.3-104Z" transform="translate(-3.84 -20.85)"/><path class="cls-53" d="M1069.15,1532.55a3.92,3.92,0,0,0,4.92-3.41c.7-7.35,2.66-21.93,7.67-32.06,0,0-3.46-10.22,26.49,3.88s74.89,34.74,99.88,19.65c24.36-14.71,46.15-83.3-19.48-67.27a3.92,3.92,0,0,1-4.87-3.85c.22-11.09-2.25-36.45-28.43-43.22-24.5-6.33-37.1,5.25-42.18,12.11a3.89,3.89,0,0,1-6.09.23c-7.73-9-28.4-28-56.57-13.76-23.19,11.75-26.1,26.59-25.21,35.69a3.91,3.91,0,0,1-5.36,4c-7.46-3-19.26-4.07-29.71,10.58-14.45,20.26,8.6,35.91,15.49,40a3.93,3.93,0,0,1,1.95,3.14c.6,10.09,4.55,54.07,28,77.73a4,4,0,0,0,6.5-1.49l14.82-41.43a3.94,3.94,0,0,1,4.71-2.48Z" transform="translate(-3.84 -20.85)"/><path class="cls-54" d="M1070,1540.76s-12.67-41.73-27.7-27.15,6.49,43.73,24.86,48.51Z" transform="translate(-3.84 -20.85)"/><path class="cls-55" d="M1199.55,1839.63a141.58,141.58,0,0,0-34.49-15.15,98.94,98.94,0,0,0-40.89-2.82c-7.47,1.12-32,5.79-33.21,15.49-.83,6.87,12.28,20,16.92,24.18a93.94,93.94,0,0,0,23.86,16.14c17,7.63,35.88,9.33,54.21,12.48,10.62,1.83,22.34,7.64,33.25,4.66,15.13-4.13,21.66-24.41,9.4-34.37A245.79,245.79,0,0,0,1199.55,1839.63Z" transform="translate(-3.84 -20.85)"/><path class="cls-56" d="M1188.3,1643.84l21,163.56c42.19,49.6,73.4,84.48,14.85,44.57a2.06,2.06,0,0,0-3.21,2c2.07,12.72-7,26.33-25.31,40.68C1402.41,2163.34,1481.12,1775.46,1188.3,1643.84Z" transform="translate(-3.84 -20.85)"/><polygon class="cls-57" points="1131.95 1724.23 1097.98 1707.79 1120.64 1660.98 1182.68 1653.85 1131.95 1724.23"/><path class="cls-58" d="M968.58,1828.16c-11.57-18.78-16.38-51.7-23.27-72.67-33.42-101.71-102.66-94.73-115.73,8.54-22.23,123.35,73.76,474.59,329.45-41.94-25.94,8.15-45-.37-50.2-11.1C990,1821.86,976.73,1841.39,968.58,1828.16Z" transform="translate(-3.84 -20.85)"/><path class="cls-59" d="M1117.47,1670.43c.29-3.37,3-15.45,3.73-17.84,4.71-15.77,29.18-7.87,27.08-26-.81-7-4.1-19.39,1-23.8,5.35-4.65,16.94,1.07,22.38,6.87,9.67,10.31,17,26.71,17.84,39.37.78,12.42-1.92,27.71-8.15,37.34-7.64,11.8-17.55,18.57-33.15,22.79C1124.07,1715.66,1115.76,1690.47,1117.47,1670.43Z" transform="translate(-3.84 -20.85)"/><path class="cls-15" d="M1322.15,1545.84a4.5,4.5,0,0,1-2.87,5.69L1225,1582.62a4.52,4.52,0,0,1-5.7-2.87h0a4.51,4.51,0,0,1,2.88-5.7l94.27-31.09a4.51,4.51,0,0,1,5.7,2.88Z" transform="translate(-3.84 -20.85)"/><path class="cls-15" d="M1303.54,1690.06a4.51,4.51,0,0,1-6.2,1.53l-85-51.33a4.52,4.52,0,0,1-1.52-6.2h0a4.51,4.51,0,0,1,6.19-1.53l85,51.34a4.51,4.51,0,0,1,1.53,6.19Z" transform="translate(-3.84 -20.85)"/><rect class="cls-15" x="1257.19" y="1571.82" width="9.02" height="81.22" rx="3.67" transform="translate(-509.68 2624.83) rotate(-82.27)"/></g></svg>