<svg id="Layer_1" data-name="Layer 1" xmlns="http://www.w3.org/2000/svg" viewBox="0 0 498 498"><defs><style>.cls-1{fill:#fff;}.cls-2{fill:#d6cc0b;}.cls-3{fill:#c65900;}</style></defs><title>Isotype</title><circle class="cls-1" cx="249" cy="249" r="249"/><path class="cls-2" d="M490,204.11l-50.13-95.54L315.23,350.75,170.1,24.07,41.82,258.2H9.8a255.48,255.48,0,0,0,5.71,45.56H82.14L164.19,154l146.86,330.6L440.41,233.24l37,70.52h10.63A257.59,257.59,0,0,0,490,204.11Z" transform="translate(-2)"/><path d="M220.68,117.32h-6.8a20.15,20.15,0,0,0-3.59-.31h0c-1.95,0-8.66.36-17.76,4-13.68,5.39-32.12,18.87-45.9,46.06s-23.87,67.58-24.47,129.22a19.94,19.94,0,0,0,19.76,20.13h.19a20,20,0,0,0,19.94-19.77c.06-6.31.23-12.31.49-18.07a61.19,61.19,0,0,1-4.33-23.71,69.18,69.18,0,0,1,13.41-41.4c4.06-15.07,8.95-26.09,13.76-34.07l-7.52,26.61a84.82,84.82,0,0,1,8.29-7.7,15.94,15.94,0,0,1,2.29-1.51c-16,13.16-26.33,31.95-26.33,54.75a71.35,71.35,0,0,0,19.95,49.62,48.47,48.47,0,0,1-18.74-20.83l34,181.69c0,10.81,10.82,19.55,24.15,19.55s24.16-8.74,24.16-19.55V329.14c1.47.06,2.94.1,4.42.1s3,0,4.43-.1V462.07c0,10.81,10.81,19.55,24.16,19.55s24.15-8.74,24.15-19.55l34-181.7A48.47,48.47,0,0,1,318,301.22a71.4,71.4,0,0,0,19.95-49.63c0-22.8-10.33-41.59-26.34-54.75a18,18,0,0,1,2.3,1.51,84.82,84.82,0,0,1,8.29,7.7l-7.49-26.51.37.59c4.68,7.86,9.4,18.7,13.35,33.37a69.13,69.13,0,0,1,13.43,41.41,61.1,61.1,0,0,1-4.34,23.7q.39,8.64.49,18.09a19.94,19.94,0,0,0,19.94,19.76h.18a20,20,0,0,0,19.76-20.13c-.78-82.07-18.3-126.87-39.44-152-10.52-12.5-21.85-19.59-30.93-23.23s-15.8-4-17.76-4a20.65,20.65,0,0,0-3.62.31h-6.75a56.45,56.45,0,0,1-58.7,0Z" transform="translate(-2)"/><circle cx="248.02" cy="68.56" r="51.29"/><path class="cls-3" d="M361.34,179.68l-58.48-55.51c-3.66-3.47-8.32-4.33-13.18-4.2l-79.35-.13c-5,0-9.49.86-13.15,4.33l-58.47,55.51a15.86,15.86,0,0,0-4.77,14.52,15.65,15.65,0,0,0,9.9,11.74l54.09,19.47a15,15,0,0,0,5.06.89A15.2,15.2,0,0,0,216.43,218c-3.72,23.94-8.74,50.2-9.85,71.33-2.22,42.27,0,172.1,0,172.1a20,20,0,0,0,19.73,20.16c10.9,0,15.95-11.48,15.95-22.6L246,292.33h8L258.69,462c0,11.13,4.18,19.61,15.08,19.61a20,20,0,0,0,19.72-20.16s2.2-129.83,0-172.1c-1.11-21.14-6.13-47.39-9.86-71.33a15.23,15.23,0,0,0,13.45,8.27,15,15,0,0,0,5.06-.89l54.09-19.47a15.63,15.63,0,0,0,9.9-11.74A15.94,15.94,0,0,0,361.34,179.68Zm-143.4,28.14A15.45,15.45,0,0,0,208,196l-30.29-10.9,34.43-32.69C222.74,157.89,221.78,180.47,217.94,207.82ZM292,196a15.48,15.48,0,0,0-9.91,11.79c-3.83-27.36-4.79-49.94,5.77-55.39l34.44,32.69Z" transform="translate(-2)"/><circle class="cls-3" cx="248.02" cy="72.55" r="41.61"/></svg>